{
  "accessors": [
    {
      "bufferView": 2,
      "componentType": 5126,
      "count": 33571,
      "max": [
        16.280563354492188,
        11.886014938354492,
        16.28057861328125
      ],
      "min": [
        -16.280563354492188,
        0.0184090007096529,
        -16.28057861328125
      ],
      "type": "VEC3"
    },
    {
      "bufferView": 2,
      "byteOffset": 402852,
      "componentType": 5126,
      "count": 33571,
      "max": [
        0.9999005198478699,
        1.0,
        0.9995543956756592
      ],
      "min": [
        -0.9999909400939941,
        -1.0,
        -0.9999850988388062
      ],
      "type": "VEC3"
    },
    {
      "bufferView": 3,
      "componentType": 5126,
      "count": 33571,
      "max": [
        0.9999996423721313,
        0.9998907446861267,
        0.9999944567680359,
        1.0
      ],
      "min": [
        -0.9999992251396179,
        -0.999999463558197,
        -0.9998389482498169,
        -1.0
      ],
      "type": "VEC4"
    },
    {
      "bufferView": 1,
      "componentType": 5126,
      "count": 33571,
      "max": [
        0.9952459931373596,
        0.9944959878921509
      ],
      "min": [
        0.006333999801427126,
        0.004419982433319092
      ],
      "type": "VEC2"
    },
    {
      "bufferView": 1,
      "byteOffset": 268568,
      "componentType": 5126,
      "count": 33571,
      "max": [
        0.9952459931373596,
        0.9944959878921509
      ],
      "min": [
        0.006333999801427126,
        0.004419982433319092
      ],
      "type": "VEC2"
    },
    {
      "bufferView": 1,
      "byteOffset": 537136,
      "componentType": 5126,
      "count": 33571,
      "max": [
        0.9952459931373596,
        0.9944959878921509
      ],
      "min": [
        0.006333999801427126,
        0.004419982433319092
      ],
      "type": "VEC2"
    },
    {
      "bufferView": 1,
      "byteOffset": 805704,
      "componentType": 5126,
      "count": 33571,
      "max": [
        0.9952459931373596,
        0.9944959878921509
      ],
      "min": [
        0.006333999801427126,
        0.004419982433319092
      ],
      "type": "VEC2"
    },
    {
      "bufferView": 1,
      "byteOffset": 1074272,
      "componentType": 5126,
      "count": 33571,
      "max": [
        0.9952459931373596,
        0.9944959878921509
      ],
      "min": [
        0.006333999801427126,
        0.004419982433319092
      ],
      "type": "VEC2"
    },
    {
      "bufferView": 0,
      "componentType": 5125,
      "count": 180210,
      "type": "SCALAR"
    }
  ],
  "asset": {
    "extras": {
      "author": "Ervinas (https://sketchfab.com/paulauskaservinas2018)",
      "license": "CC-BY-4.0 (http://creativecommons.org/licenses/by/4.0/)",
      "source": "https://sketchfab.com/3d-models/pasta-bec7601a89f14d0bbe7eb40b48d14b26",
      "title": "Pasta"
    },
    "generator": "Sketchfab-12.68.0",
    "version": "2.0"
  },
  "bufferViews": [
    {
      "buffer": 0,
      "byteLength": 720840,
      "name": "floatBufferViews",
      "target": 34963
    },
    {
      "buffer": 0,
      "byteLength": 1342840,
      "byteOffset": 720840,
      "byteStride": 8,
      "name": "floatBufferViews",
      "target": 34962
    },
    {
      "buffer": 0,
      "byteLength": 805704,
      "byteOffset": 2063680,
      "byteStride": 12,
      "name": "floatBufferViews",
      "target": 34962
    },
    {
      "buffer": 0,
      "byteLength": 537136,
      "byteOffset": 2869384,
      "byteStride": 16,
      "name": "floatBufferViews",
      "target": 34962
    }
  ],
  "buffers": [
    {
      "byteLength": 3406520,
      "uri": "scene.bin"
    }
  ],
  "extensionsRequired": [
    "KHR_materials_pbrSpecularGlossiness"
  ],
  "extensionsUsed": [
    "KHR_materials_pbrSpecularGlossiness"
  ],
  "images": [
    {
      "uri": "textures/material_0_diffuse.png"
    },
    {
      "uri": "textures/material_0_specularGlossiness.png"
    },
    {
      "uri": "textures/material_0_normal.png"
    },
    {
      "uri": "textures/material_0_occlusion.png"
    }
  ],
  "materials": [
    {
      "doubleSided": true,
      "extensions": {
        "KHR_materials_pbrSpecularGlossiness": {
          "diffuseFactor": [
            1.0,
            1.0,
            1.0,
            1.0
          ],
          "diffuseTexture": {
            "index": 0
          },
          "glossinessFactor": 1.0,
          "specularFactor": [
            1.0,
            1.0,
            1.0
          ],
          "specularGlossinessTexture": {
            "index": 1
          }
        }
      },
      "name": "material_0",
      "normalTexture": {
        "index": 2
      },
      "occlusionTexture": {
        "index": 3
      }
    }
  ],
  "meshes": [
    {
      "name": "Object_0",
      "primitives": [
        {
          "attributes": {
            "NORMAL": 1,
            "POSITION": 0,
            "TANGENT": 2,
            "TEXCOORD_0": 3,
            "TEXCOORD_1": 4,
            "TEXCOORD_2": 5,
            "TEXCOORD_3": 6,
            "TEXCOORD_4": 7
          },
          "indices": 8,
          "material": 0,
          "mode": 4
        }
      ]
    }
  ],
  "nodes": [
    {
      "children": [
        1
      ],
      "matrix": [
        1.0,
        0.0,
        0.0,
        0.0,
        0.0,
        2.220446049250313e-16,
        -1.0,
        0.0,
        0.0,
        1.0,
        2.220446049250313e-16,
        0.0,
        0.0,
        0.0,
        0.0,
        1.0
      ],
      "name": "Sketchfab_model"
    },
    {
      "children": [
        2
      ],
      "name": "root"
    },
    {
      "children": [
        3
      ],
      "matrix": [
        1.0,
        0.0,
        0.0,
        0.0,
        0.0,
        2.220446049250313e-16,
        1.0,
        0.0,
        0.0,
        -1.0,
        2.220446049250313e-16,
        0.0,
        0.0,
        0.0,
        0.0,
        1.0
      ],
      "name": "GLTF_SceneRootNode"
    },
    {
      "children": [
        4
      ],
      "matrix": [
        0.009999999776482582,
        0.0,
        0.0,
        0.0,
        0.0,
        0.009999999776482582,
        0.0,
        0.0,
        0.0,
        0.0,
        0.009999999776482582,
        0.0,
        0.0,
        0.0,
        0.0,
        1.0
      ],
      "name": "RootNode.0_0"
    },
    {
      "children": [
        5
      ],
      "name": "pasta.1_1"
    },
    {
      "mesh": 0,
      "name": "Object_5"
    }
  ],
  "samplers": [
    {
      "magFilter": 9729,
      "minFilter": 9987,
      "wrapS": 10497,
      "wrapT": 10497
    }
  ],
  "scene": 0,
  "scenes": [
    {
      "name": "Sketchfab_Scene",
      "nodes": [
        0
      ]
    }
  ],
  "textures": [
    {
      "sampler": 0,
      "source": 0
    },
    {
      "sampler": 0,
      "source": 1
    },
    {
      "sampler": 0,
      "source": 2
    },
    {
      "sampler": 0,
      "source": 3
    }
  ]
}
